Coordinates
version=1
nRows=9
nColumns=42
inDegrees=yes

Units are S.I. units (second, meters, Newtons, ...)
If the header above contains a line with 'inDegrees', this indicates whether rotational values are in degrees (yes) or radians (no).

endheader
time	pelvis_tilt	pelvis_list	pelvis_rotation	pelvis_tx	pelvis_ty	pelvis_tz	hip_flexion_r	hip_adduction_r	hip_rotation_r	knee_angle_r	knee_adduction_r	knee_angle_r_beta	ankle_angle_r	subtalar_angle_r	mtp_angle_r	hip_flexion_l	hip_adduction_l	hip_rotation_l	knee_angle_l	knee_adduction_l	knee_angle_l_beta	ankle_angle_l	subtalar_angle_l	mtp_angle_l	lumbar_extension	lumbar_bending	lumbar_rotation	arm_flex_r	arm_add_r	arm_rot_r	elbow_flex_r	pro_sup_r	wrist_flex_r	wrist_dev_r	arm_flex_l	arm_add_l	arm_rot_l	elbow_flex_l	pro_sup_l	wrist_flex_l	wrist_dev_l
      0.00000000	      4.33130060	     -2.52277857	     -4.95887060	     -1.38124379	      1.00410327	     -0.23490084	    -17.39279600	      1.97090470	      1.49701882	      7.68061488	      8.97975483	      0.13405202	     13.98797481	      7.36747806	     -9.49876082	     19.51497759	    -12.69829191	    -10.06448876	     15.65815427	     11.41935910	      0.27328635	      1.62822790	     -7.63340294	     -9.49876082	    -18.71629562	     -1.90232854	     10.34678319	     18.01686226	    -16.93292562	     -6.95802862	     35.90154653	     90.00000001	      0.00000000	      0.00000000	    -11.82936393	    -11.59135809	    -15.42680995	     14.36010870	     90.00000001	      0.00000000	      0.00000000
      0.01000000	      3.84150464	     -2.87538592	     -5.21456833	     -1.36824507	      1.00091238	     -0.23451013	    -17.59052594	      2.36543257	      1.60117552	      7.96916752	      8.76577473	      0.13908821	     14.36006944	      7.39631442	     -9.47086554	     20.17886634	    -13.26868724	    -10.77792922	     13.15500090	     11.92862763	      0.22959808	      1.24467580	     -6.04364575	     -9.47086554	    -18.24243419	     -1.67682640	     10.68083211	     18.74906140	    -17.25510085	     -6.42692516	     36.47842302	     90.00000001	      0.00000000	      0.00000000	    -12.49271185	    -11.54056742	    -15.50249768	     14.46549265	     90.00000001	      0.00000000	      0.00000000
      0.02000000	      4.01350720	     -2.96669726	     -5.76483697	     -1.35469784	      0.99862403	     -0.23440541	    -18.55463535	      2.19117592	      2.19629851	      8.12195677	      8.74915521	      0.14175489	     14.63095599	      7.36585773	     -9.38963303	     19.81185405	    -13.47184644	    -11.74068050	     10.58128756	     12.32182101	      0.18467831	      1.34253553	     -4.27812655	     -9.38963303	    -18.46356130	     -1.80080500	     11.09780625	     19.46581763	    -17.73143424	     -5.33891618	     37.33491014	     90.00000001	      0.00000000	      0.00000000	    -13.05260607	    -11.34264257	    -15.93553156	     14.42943861	     90.00000001	      0.00000000	      0.00000000
      0.03000000	      3.63246259	     -3.18024023	     -6.07897887	     -1.34109325	      0.99558870	     -0.23395168	    -18.85069426	      2.40384407	      2.44990563	      8.50350574	      8.52384748	      0.14841417	     14.89722601	      7.27595048	     -9.36387757	     20.30412337	    -13.91023354	    -12.34669472	      8.77598516	     12.85334155	      0.15316984	      1.16928238	     -2.96162057	     -9.36387757	    -18.05779310	     -1.76653186	     11.31445203	     20.15873627	    -17.91735287	     -4.78230391	     37.67473826	     90.00000001	      0.00000000	      0.00000000	    -13.68855637	    -11.27797639	    -16.12338860	     14.45176541	     90.00000001	      0.00000000	      0.00000000
      0.04000000	      3.82923144	     -3.11453159	     -6.61718422	     -1.32715876	      0.99350237	     -0.23386339	    -19.81488352	      2.03571200	      3.18861488	      8.69104998	      8.51995460	      0.15168744	     14.94657133	      6.89068407	     -9.27491307	     20.00679988	    -13.90449788	    -13.45112942	      7.27580372	     13.05759820	      0.12698673	      1.44051422	     -1.21835234	     -9.27491307	    -18.25862381	     -2.08684925	     11.58545307	     20.81650198	    -18.21742117	     -3.74971063	     38.21341931	     90.00000001	      0.00000000	      0.00000000	    -14.08434067	    -11.05930092	    -17.09107162	     14.24569449	     90.00000001	      0.00000000	      0.00000000
      0.05000000	      3.64961662	     -3.17591817	     -6.99890203	     -1.31329381	      0.99100802	     -0.23353772	    -20.24175798	      2.00226888	      3.59826145	      9.20257534	      8.29372931	      0.16061524	     15.04897447	      6.73208335	     -9.24897894	     20.25030596	    -14.07485968	    -13.83116321	      6.31716257	     13.32338657	      0.11025529	      1.52205408	     -0.35736817	     -9.24897894	    -18.04957039	     -2.23579113	     11.75912056	     21.41691663	    -18.32570253	     -3.12134675	     38.44357326	     90.00000001	      0.00000000	      0.00000000	    -14.55276667	    -10.95488399	    -17.36930236	     14.21434980	     90.00000001	      0.00000000	      0.00000000
      0.06000000	      3.73919510	     -2.98403683	     -7.45585856	     -1.29910983	      0.98902866	     -0.23345597	    -20.92241797	      1.55547283	      4.14348444	      9.70975567	      8.18446000	      0.16946721	     15.03244061	      6.47453426	     -9.21440494	     20.15454085	    -13.88883637	    -14.31232124	      5.79544588	     13.40516140	      0.10114961	      1.67752825	      0.24875794	     -9.21440494	    -18.09533927	     -2.68742534	     11.91354832	     21.87885049	    -18.47502726	     -2.30755528	     38.80014752	     90.00000001	      0.00000000	      0.00000000	    -14.89078088	    -10.82227205	    -17.91604053	     14.07871060	     90.00000001	      0.00000000	      0.00000000
      0.07000000	      3.89165564	     -2.62471463	     -7.86890279	     -1.28461388	      0.98728775	     -0.23355096	    -21.62793795	      0.88769534	      4.63250168	     10.25209023	      8.13612575	      0.17893273	     14.89137737	      6.12685149	     -9.17573687	     20.03832061	    -13.45852228	    -14.69744876	      5.78957462	     13.36090231	      0.10104714	      1.76411398	      0.39787092	     -9.17573687	    -18.16461754	     -3.31442953	     12.01104163	     22.16971735	    -18.57525424	     -1.66963102	     39.19712012	     90.00000001	      0.00000000	      0.00000000	    -15.09057697	    -10.71941285	    -18.56703888	     13.84311917	     90.00000001	      0.00000000	      0.00000000
      0.08000000	      3.83259922	     -2.47920186	     -8.05072670	     -1.26996309	      0.98544540	     -0.23349491	    -22.13233346	      0.66370221	      5.07134932	     10.81162271	      7.86481039	      0.18869841	     14.70111492	      6.15641174	     -9.16587240	     20.23876548	    -13.24552415	    -14.36520847	      6.19459678	     13.35083573	      0.10811611	      1.73486967	      0.39804083	     -9.16587240	    -18.01795787	     -3.67426524	     11.99689311	     22.33901557	    -18.48003293	     -1.58664008	     39.44066325	     90.00000001	      0.00000000	      0.00000000	    -15.33602046	    -10.70725264	    -18.64383036	     13.78227611	     90.00000001	      0.00000000	      0.00000000
